%TF.GenerationSoftware,KiCad,Pcbnew,8.0.4*%
%TF.CreationDate,2024-10-24T16:41:08-04:00*%
%TF.ProjectId,merged,6d657267-6564-42e6-9b69-6361645f7063,rev?*%
%TF.SameCoordinates,Original*%
%TF.FileFunction,Paste,Top*%
%TF.FilePolarity,Positive*%
%FSLAX46Y46*%
G04 Gerber Fmt 4.6, Leading zero omitted, Abs format (unit mm)*
G04 Created by KiCad (PCBNEW 8.0.4) date 2024-10-24 16:41:08*
%MOMM*%
%LPD*%
G01*
G04 APERTURE LIST*
G04 Aperture macros list*
%AMRoundRect*
0 Rectangle with rounded corners*
0 $1 Rounding radius*
0 $2 $3 $4 $5 $6 $7 $8 $9 X,Y pos of 4 corners*
0 Add a 4 corners polygon primitive as box body*
4,1,4,$2,$3,$4,$5,$6,$7,$8,$9,$2,$3,0*
0 Add four circle primitives for the rounded corners*
1,1,$1+$1,$2,$3*
1,1,$1+$1,$4,$5*
1,1,$1+$1,$6,$7*
1,1,$1+$1,$8,$9*
0 Add four rect primitives between the rounded corners*
20,1,$1+$1,$2,$3,$4,$5,0*
20,1,$1+$1,$4,$5,$6,$7,0*
20,1,$1+$1,$6,$7,$8,$9,0*
20,1,$1+$1,$8,$9,$2,$3,0*%
G04 Aperture macros list end*
%ADD10C,0.000000*%
%ADD11R,3.352800X3.352800*%
%ADD12R,0.863600X0.254000*%
%ADD13R,0.254000X0.863600*%
%ADD14R,1.380000X1.010000*%
%ADD15R,0.711200X1.295400*%
%ADD16RoundRect,0.237500X-0.250000X-0.237500X0.250000X-0.237500X0.250000X0.237500X-0.250000X0.237500X0*%
%ADD17RoundRect,0.250000X-0.350000X-0.450000X0.350000X-0.450000X0.350000X0.450000X-0.350000X0.450000X0*%
%ADD18RoundRect,0.250000X-0.450000X0.350000X-0.450000X-0.350000X0.450000X-0.350000X0.450000X0.350000X0*%
%ADD19RoundRect,0.243750X0.456250X-0.243750X0.456250X0.243750X-0.456250X0.243750X-0.456250X-0.243750X0*%
%ADD20R,1.346200X0.787400*%
%ADD21R,1.550000X1.300000*%
%ADD22RoundRect,0.250000X0.475000X-0.337500X0.475000X0.337500X-0.475000X0.337500X-0.475000X-0.337500X0*%
%ADD23R,0.723900X0.381000*%
%ADD24RoundRect,0.243750X-0.456250X0.243750X-0.456250X-0.243750X0.456250X-0.243750X0.456250X0.243750X0*%
%ADD25RoundRect,0.237500X0.237500X-0.250000X0.237500X0.250000X-0.237500X0.250000X-0.237500X-0.250000X0*%
%ADD26R,0.300000X1.000000*%
%ADD27RoundRect,0.250000X-0.450000X0.325000X-0.450000X-0.325000X0.450000X-0.325000X0.450000X0.325000X0*%
%ADD28RoundRect,0.237500X0.250000X0.237500X-0.250000X0.237500X-0.250000X-0.237500X0.250000X-0.237500X0*%
%ADD29R,0.254000X0.203200*%
%ADD30R,0.203200X0.254000*%
%ADD31RoundRect,0.375000X0.625000X0.375000X-0.625000X0.375000X-0.625000X-0.375000X0.625000X-0.375000X0*%
%ADD32RoundRect,0.500000X0.500000X1.400000X-0.500000X1.400000X-0.500000X-1.400000X0.500000X-1.400000X0*%
%ADD33RoundRect,0.250000X0.350000X0.450000X-0.350000X0.450000X-0.350000X-0.450000X0.350000X-0.450000X0*%
%ADD34RoundRect,0.250000X0.337500X0.475000X-0.337500X0.475000X-0.337500X-0.475000X0.337500X-0.475000X0*%
%ADD35RoundRect,0.250000X0.325000X0.450000X-0.325000X0.450000X-0.325000X-0.450000X0.325000X-0.450000X0*%
%ADD36R,0.400000X1.750000*%
%ADD37R,1.425000X2.500000*%
%ADD38R,3.403600X1.498600*%
%ADD39R,0.920000X1.380000*%
%ADD40RoundRect,0.250000X0.250000X0.250000X-0.250000X0.250000X-0.250000X-0.250000X0.250000X-0.250000X0*%
%ADD41RoundRect,0.250000X-0.325000X-0.450000X0.325000X-0.450000X0.325000X0.450000X-0.325000X0.450000X0*%
%ADD42RoundRect,0.250000X-0.337500X-0.475000X0.337500X-0.475000X0.337500X0.475000X-0.337500X0.475000X0*%
%ADD43RoundRect,0.075000X0.075000X-0.700000X0.075000X0.700000X-0.075000X0.700000X-0.075000X-0.700000X0*%
%ADD44RoundRect,0.075000X0.700000X-0.075000X0.700000X0.075000X-0.700000X0.075000X-0.700000X-0.075000X0*%
%ADD45RoundRect,0.250000X-0.475000X0.337500X-0.475000X-0.337500X0.475000X-0.337500X0.475000X0.337500X0*%
%ADD46R,0.508000X1.193800*%
%ADD47R,0.787400X1.346200*%
%ADD48R,1.498600X0.812800*%
%ADD49R,0.812800X1.498600*%
%ADD50R,0.889000X0.889000*%
%ADD51R,2.311400X5.613400*%
G04 APERTURE END LIST*
D10*
%TO.C,U6*%
G36*
X501300000Y-161676400D02*
G01*
X499823600Y-161676400D01*
X499823600Y-160200000D01*
X501300000Y-160200000D01*
X501300000Y-161676400D01*
G37*
G36*
X502976400Y-161676400D02*
G01*
X501500000Y-161676400D01*
X501500000Y-160200000D01*
X502976400Y-160200000D01*
X502976400Y-161676400D01*
G37*
G36*
X501300000Y-160000000D02*
G01*
X499823600Y-160000000D01*
X499823600Y-158523600D01*
X501300000Y-158523600D01*
X501300000Y-160000000D01*
G37*
G36*
X502976400Y-160000000D02*
G01*
X501500000Y-160000000D01*
X501500000Y-158523600D01*
X502976400Y-158523600D01*
X502976400Y-160000000D01*
G37*
%TD*%
D11*
%TO.C,U6*%
X501400000Y-160100000D03*
D12*
X503673300Y-158600000D03*
X503673300Y-159099999D03*
X503673300Y-159600001D03*
X503673300Y-160100000D03*
X503673300Y-160599999D03*
X503673300Y-161100001D03*
X503673300Y-161600000D03*
D13*
X502900000Y-162373300D03*
X502400001Y-162373300D03*
X501899999Y-162373300D03*
X501400000Y-162373300D03*
X500900001Y-162373300D03*
X500399999Y-162373300D03*
X499900000Y-162373300D03*
D12*
X499126700Y-161600000D03*
X499126700Y-161100001D03*
X499126700Y-160599999D03*
X499126700Y-160100000D03*
X499126700Y-159600001D03*
X499126700Y-159099999D03*
X499126700Y-158600000D03*
D13*
X499900000Y-157826700D03*
X500399999Y-157826700D03*
X500900001Y-157826700D03*
X501400000Y-157826700D03*
X501899999Y-157826700D03*
X502400001Y-157826700D03*
X502900000Y-157826700D03*
%TD*%
D14*
%TO.C,R20*%
X508900000Y-160200000D03*
X508900000Y-158300000D03*
%TD*%
D15*
%TO.C,R19*%
X493700000Y-160000000D03*
X495401800Y-160000000D03*
%TD*%
D16*
%TO.C,R18*%
X493600000Y-164600000D03*
X495425000Y-164600000D03*
%TD*%
D17*
%TO.C,R17*%
X493400000Y-162400000D03*
X495400000Y-162400000D03*
%TD*%
D18*
%TO.C,R15*%
X432400000Y-193875000D03*
X432400000Y-195875000D03*
%TD*%
D19*
%TO.C,D10*%
X381964000Y-165343600D03*
X381964000Y-163468600D03*
%TD*%
D18*
%TO.C,R16*%
X442500000Y-198750000D03*
X442500000Y-200750000D03*
%TD*%
D20*
%TO.C,R9*%
X478177000Y-168635600D03*
X478177000Y-167060800D03*
%TD*%
D21*
%TO.C,SW3*%
X453270000Y-198250000D03*
X461230000Y-198250000D03*
X453270000Y-202750000D03*
X461230000Y-202750000D03*
%TD*%
D22*
%TO.C,C20*%
X415463333Y-190325000D03*
X415463333Y-188250000D03*
%TD*%
D19*
%TO.C,D5*%
X374696800Y-165366700D03*
X374696800Y-163491700D03*
%TD*%
D23*
%TO.C,U5*%
X500471000Y-215343200D03*
X500471000Y-214393199D03*
X500471000Y-213443198D03*
X498096100Y-213443198D03*
X498096100Y-215343200D03*
%TD*%
D24*
%TO.C,D8*%
X370926800Y-209568800D03*
X370926800Y-211443800D03*
%TD*%
D25*
%TO.C,R2*%
X486686000Y-179193200D03*
X486686000Y-177368200D03*
%TD*%
D22*
%TO.C,C24*%
X446000000Y-176575000D03*
X446000000Y-174500000D03*
%TD*%
D17*
%TO.C,R14*%
X418450000Y-207500000D03*
X420450000Y-207500000D03*
%TD*%
D26*
%TO.C,U7*%
X483086000Y-166823200D03*
X482426000Y-166823200D03*
X481766000Y-166823200D03*
X481766000Y-169003200D03*
X482426000Y-169003200D03*
X483086000Y-169003200D03*
%TD*%
D20*
%TO.C,R6*%
X520243400Y-159763200D03*
X520243400Y-161338000D03*
%TD*%
%TO.C,R1*%
X486686000Y-184168000D03*
X486686000Y-182593200D03*
%TD*%
D22*
%TO.C,C17*%
X419456666Y-190325000D03*
X419456666Y-188250000D03*
%TD*%
D27*
%TO.C,FB1*%
X450500000Y-187800000D03*
X450500000Y-189850000D03*
%TD*%
D28*
%TO.C,R7*%
X488911000Y-166793200D03*
X487086000Y-166793200D03*
%TD*%
D29*
%TO.C,U4*%
X495000000Y-155700000D03*
X494009400Y-155700000D03*
%TD*%
D21*
%TO.C,S4*%
X484486000Y-222543200D03*
X476536000Y-222543200D03*
X484486000Y-218043200D03*
X476536000Y-218043200D03*
%TD*%
D22*
%TO.C,C19*%
X411470000Y-190250000D03*
X411470000Y-188175000D03*
%TD*%
D30*
%TO.C,U2*%
X511346000Y-156162600D03*
X511346000Y-157153200D03*
%TD*%
D31*
%TO.C,U11*%
X421200000Y-199500000D03*
X421200000Y-197200000D03*
D32*
X414900000Y-197200000D03*
D31*
X421200000Y-194900000D03*
%TD*%
D33*
%TO.C,R13*%
X424750000Y-177000000D03*
X422750000Y-177000000D03*
%TD*%
D24*
%TO.C,D9*%
X369453600Y-215766400D03*
X369453600Y-217641400D03*
%TD*%
D34*
%TO.C,C22*%
X433325000Y-189100000D03*
X431250000Y-189100000D03*
%TD*%
D16*
%TO.C,R8*%
X487086000Y-169303200D03*
X488911000Y-169303200D03*
%TD*%
D35*
%TO.C,D16*%
X426250000Y-207500000D03*
X424200000Y-207500000D03*
%TD*%
D36*
%TO.C,J1*%
X502267750Y-153225000D03*
X501617750Y-153225000D03*
X500967750Y-153225000D03*
X500317750Y-153225000D03*
X499667750Y-153225000D03*
D37*
X501930250Y-150150000D03*
X500005250Y-150150000D03*
%TD*%
D19*
%TO.C,D3*%
X390230800Y-177814200D03*
X390230800Y-175939200D03*
%TD*%
%TO.C,D4*%
X360218800Y-165292800D03*
X360218800Y-163417800D03*
%TD*%
D22*
%TO.C,C18*%
X423450000Y-190325000D03*
X423450000Y-188250000D03*
%TD*%
%TO.C,C23*%
X433650000Y-176800000D03*
X433650000Y-174725000D03*
%TD*%
D38*
%TO.C,C12*%
X349946400Y-175075600D03*
X343139200Y-175075600D03*
%TD*%
D39*
%TO.C,R4*%
X493371000Y-203168200D03*
X491461000Y-203168200D03*
%TD*%
D21*
%TO.C,S3*%
X515786000Y-222543200D03*
X507836000Y-222543200D03*
X515786000Y-218043200D03*
X507836000Y-218043200D03*
%TD*%
D24*
%TO.C,D7*%
X361833600Y-210127600D03*
X361833600Y-212002600D03*
%TD*%
D40*
%TO.C,D13*%
X424750000Y-180750000D03*
X422250000Y-180750000D03*
%TD*%
D19*
%TO.C,D6*%
X367477334Y-165343600D03*
X367477334Y-163468600D03*
%TD*%
D25*
%TO.C,R3*%
X503821000Y-215343200D03*
X503821000Y-213518200D03*
%TD*%
D40*
%TO.C,D15*%
X415200000Y-207500000D03*
X412700000Y-207500000D03*
%TD*%
D20*
%TO.C,R5*%
X522996000Y-159763200D03*
X522996000Y-161338000D03*
%TD*%
D29*
%TO.C,U3*%
X494995300Y-157400000D03*
X494004700Y-157400000D03*
%TD*%
D38*
%TO.C,C11*%
X367777200Y-199256400D03*
X360970000Y-199256400D03*
%TD*%
D41*
%TO.C,D14*%
X422500000Y-173250000D03*
X424550000Y-173250000D03*
%TD*%
D42*
%TO.C,C21*%
X447825000Y-185750000D03*
X449900000Y-185750000D03*
%TD*%
D43*
%TO.C,U12*%
X436250000Y-188675000D03*
X436750000Y-188675000D03*
X437250000Y-188675000D03*
X437750000Y-188675000D03*
X438250000Y-188675000D03*
X438750000Y-188675000D03*
X439250000Y-188675000D03*
X439750000Y-188675000D03*
X440250000Y-188675000D03*
X440750000Y-188675000D03*
X441250000Y-188675000D03*
X441750000Y-188675000D03*
X442250000Y-188675000D03*
X442750000Y-188675000D03*
X443250000Y-188675000D03*
X443750000Y-188675000D03*
D44*
X445675000Y-186750000D03*
X445675000Y-186250000D03*
X445675000Y-185750000D03*
X445675000Y-185250000D03*
X445675000Y-184750000D03*
X445675000Y-184250000D03*
X445675000Y-183750000D03*
X445675000Y-183250000D03*
X445675000Y-182750000D03*
X445675000Y-182250000D03*
X445675000Y-181750000D03*
X445675000Y-181250000D03*
X445675000Y-180750000D03*
X445675000Y-180250000D03*
X445675000Y-179750000D03*
X445675000Y-179250000D03*
D43*
X443750000Y-177325000D03*
X443250000Y-177325000D03*
X442750000Y-177325000D03*
X442250000Y-177325000D03*
X441750000Y-177325000D03*
X441250000Y-177325000D03*
X440750000Y-177325000D03*
X440250000Y-177325000D03*
X439750000Y-177325000D03*
X439250000Y-177325000D03*
X438750000Y-177325000D03*
X438250000Y-177325000D03*
X437750000Y-177325000D03*
X437250000Y-177325000D03*
X436750000Y-177325000D03*
X436250000Y-177325000D03*
D44*
X434325000Y-179250000D03*
X434325000Y-179750000D03*
X434325000Y-180250000D03*
X434325000Y-180750000D03*
X434325000Y-181250000D03*
X434325000Y-181750000D03*
X434325000Y-182250000D03*
X434325000Y-182750000D03*
X434325000Y-183250000D03*
X434325000Y-183750000D03*
X434325000Y-184250000D03*
X434325000Y-184750000D03*
X434325000Y-185250000D03*
X434325000Y-185750000D03*
X434325000Y-186250000D03*
X434325000Y-186750000D03*
%TD*%
D45*
%TO.C,C25*%
X447050000Y-190100000D03*
X447050000Y-192175000D03*
%TD*%
D46*
%TO.C,D2*%
X497339400Y-202968200D03*
X495536000Y-202968200D03*
%TD*%
D47*
%TO.C,R10*%
X489361000Y-171643200D03*
X490935800Y-171643200D03*
%TD*%
D48*
%TO.C,U1*%
X493736000Y-175673200D03*
X493736000Y-176943200D03*
X493736000Y-178213200D03*
X493736000Y-179483200D03*
X493736000Y-180753200D03*
X493736000Y-182023200D03*
X493736000Y-183293200D03*
X493736000Y-184563200D03*
X493736000Y-185833200D03*
X493736000Y-187103200D03*
X493736000Y-188373200D03*
X493736000Y-189643200D03*
X493736000Y-190913200D03*
X493736000Y-192183200D03*
D49*
X495501000Y-193433200D03*
X496771000Y-193433200D03*
X498041000Y-193433200D03*
X499311000Y-193433200D03*
X500581000Y-193433200D03*
X501851000Y-193433200D03*
X503121000Y-193433200D03*
X504391000Y-193433200D03*
X505661000Y-193433200D03*
X506931000Y-193433200D03*
X508201000Y-193433200D03*
X509471000Y-193433200D03*
D48*
X511236000Y-192183200D03*
X511236000Y-190913200D03*
X511236000Y-189643200D03*
X511236000Y-188373200D03*
X511236000Y-187103200D03*
X511236000Y-185833200D03*
X511236000Y-184563200D03*
X511236000Y-183293200D03*
X511236000Y-182023200D03*
X511236000Y-180753200D03*
X511236000Y-179483200D03*
X511236000Y-178213200D03*
X511236000Y-176943200D03*
X511236000Y-175673200D03*
D50*
X500986000Y-183393200D03*
X499586000Y-181993200D03*
X499586000Y-183393200D03*
X499586000Y-184793200D03*
X500986000Y-184793200D03*
X502386000Y-184793200D03*
X502386000Y-183393200D03*
X502386000Y-181993200D03*
X500986000Y-181993200D03*
%TD*%
D45*
%TO.C,C26*%
X442500000Y-204000000D03*
X442500000Y-206075000D03*
%TD*%
D51*
%TO.C,F1*%
X356066800Y-241900000D03*
X348650000Y-241900000D03*
%TD*%
M02*
